#N canvas 600 129 936 704 10;
#X obj 30 43 hsl 128 15 0 127 0 0 empty empty empty -2 -8 0 10 -262144
-1 -1 9100 1;
#X obj 30 68 mtof;
#X obj 31 234 dac~;
#X floatatom 83 93 5 0 0 0 - - -, f 5;
#N canvas 0 0 450 300 (subpatch) 0;
#X array square 100 float 5 black black;
#A 0 0 0 0 0 0 0 0 0 1 1 1 1 1 1 1 1 1 1 1 1 1 1 1 0 0 0 0 0 0 0 0
0 0 0 0 0 0 0 1 1 1 1 1 1 1 1 1 1 1 1 1 1 1 0 0 0 0 0 0 0 0 0 0 0 0
0 0 0 0 1 1 1 1 1 1 1 1 1 1 1 1 1 1 1 0 0 0 0 0 0 0 0 0 0 0 0 0 0 0
1;
#X coords 0 2 99 -2 200 140 1;
#X restore 32 268 graph;
#X obj 63 152 tgl 15 0 empty empty empty 17 7 0 10 -262144 -1 -1 1
1;
#X obj 63 175 metro 100;
#X text 32 432 source: http://write.flossmanuals.net/pure-data/oscillators/
;
#X text 187 42 slide to control de MIDI frequency;
#X text 187 66 convert from MIDI to Hz;
#X text 184 202 graph the wave with a 100 milisec interval;
#X text 184 232 output sound to speakers;
#X obj 30 93 phasor~;
#X text 26 9 SQUARE WAVE;
#X obj 30 118 expr~ $v1 > 0.5;
#X obj 63 203 tabwrite~ square;
#X text 187 90 generate a square wave from the input frequency;
#X connect 0 0 1 0;
#X connect 1 0 3 0;
#X connect 1 0 12 0;
#X connect 5 0 6 0;
#X connect 6 0 15 0;
#X connect 12 0 14 0;
#X connect 14 0 2 0;
#X connect 14 0 2 1;
#X connect 14 0 15 0;
